<svg width="524" height="541" viewBox="0 0 524 541" fill="none" xmlns="http://www.w3.org/2000/svg">
<path d="M184.292 1C21.644 1 -1.85578 167.672 0.827272 251.008L12.7622 381.568C7.21108 400.551 7.7662 437.515 44.4037 436.848C90.2006 436.015 111.295 442.682 126.838 494.628C137.94 527.962 189.011 538.24 206.774 531.018C222.595 524.586 221.874 524.74 258.955 535.185C305.307 548.241 313.634 532.963 324.736 510.74C335.838 488.517 347.773 494.35 417.44 470.46C426.475 467.122 432.59 461.72 442.143 452.404C451.063 443.705 471.009 434.07 477.67 415.459C509.597 362.136 522.634 286.434 522.634 247.119C522.634 115.726 389.819 70.4644 358.876 60.7243C324.459 49.8905 268.115 1 184.292 1Z" fill="#E5F5F8" stroke="#E5F5F8"/>
</svg>