<svg width="67" height="67" viewBox="0 0 67 67" fill="none" xmlns="http://www.w3.org/2000/svg">
<circle cx="33.877" cy="33.1554" r="32.5639" stroke="#D1DBE6"/>
<path d="M50.1289 38.8686C49.9181 38.3766 49.4262 38.0253 48.864 37.8847C48.6532 36.9712 48.3721 36.5495 48.3721 36.4793C48.4423 36.3387 48.5829 36.2684 48.5829 36.1982C49.4262 35.2143 48.864 33.7386 47.4585 33.3872C46.6855 32.6142 45.9828 32.2628 45.3503 31.9817C44.7881 31.7006 44.9989 31.8412 44.507 31.5601C44.3665 30.8574 44.2962 29.3113 44.0854 28.1869C43.8745 27.2031 43.4529 26.4301 42.8907 26.0085C42.6096 25.4463 42.3285 24.9544 41.9069 24.5327C43.8745 21.5812 44.3665 18.6297 42.961 17.0837C42.3285 16.3809 41.415 16.0999 40.2906 16.0999C38.6743 16.0999 36.7769 16.7323 34.8092 17.927C34.8092 17.927 33.5443 16.8729 33.474 16.8729C27.9927 12.5862 12.4622 31.6304 17.9435 35.7765L19.349 36.8306C18.4354 39.2902 19.7004 42.2417 22.3005 43.1553C22.8627 43.3661 23.4951 43.4364 24.1276 43.4364C24.1276 43.4364 28.2738 51.0259 37.058 51.0259C47.1774 51.0259 49.7775 41.1173 49.7775 41.0471C49.7073 41.1173 50.5505 39.8524 50.1289 38.8686ZM18.2949 34.5116C17.2408 32.6142 19.1382 28.8194 20.5436 26.5706C23.9168 21.1596 29.609 16.8729 32.2091 17.5053L32.9118 17.2242C32.9118 17.2242 34.8092 18.8405 34.8795 18.8405C36.2147 18.0675 37.9013 17.2242 39.4473 17.0837C38.4635 17.2945 37.3391 17.7864 35.9336 18.6297C35.9336 18.6297 32.6307 20.8785 30.6631 22.8461C29.609 23.9002 25.252 29.1708 25.252 29.1005C26.025 27.6248 26.5872 26.8517 27.8521 25.3057C28.5549 24.3922 29.3279 23.5489 30.1009 22.7056C30.4522 22.3542 30.8036 22.0029 31.2253 21.6515C31.5064 21.4407 31.7172 21.1596 31.9983 20.9487C32.1388 20.8785 32.2091 20.7379 32.3496 20.6677L29.8198 18.5594L29.9603 19.473L31.7874 21.0893C31.7874 21.0893 30.1711 22.2137 29.3279 22.9164C26.025 25.7274 22.8627 30.0141 21.668 34.1602H21.7383C21.1761 34.5116 20.5436 35.0035 20.0517 35.7062C19.8409 35.7765 18.5057 34.863 18.2949 34.5116ZM23.706 42.312C21.7383 42.312 20.1923 40.6254 20.1923 38.5875C20.1923 36.5495 21.8086 34.863 23.706 34.863C24.1979 34.863 24.6898 35.0035 25.1114 35.1441C25.1114 35.1441 25.8844 35.4954 26.0953 37.3225C26.3061 36.7603 26.4466 36.2684 26.4466 36.2684C26.7277 37.0414 26.798 37.8847 26.798 38.6577C27.0088 38.3766 27.2196 37.8847 27.2196 37.8847C27.6413 40.274 25.9547 42.312 23.706 42.312ZM28.0629 29.1708C28.0629 29.1708 29.609 26.2896 32.9118 24.3219C32.6307 24.2516 32.0685 24.3922 31.928 24.3922C32.5605 23.9002 33.6848 23.5489 34.4578 23.3381C34.247 23.1975 33.6848 23.1272 33.4037 23.1272C33.3335 23.1272 33.3335 23.1272 33.2632 23.1272C33.9659 22.7056 35.3714 22.4948 36.5661 22.7056C36.4255 22.4948 36.0741 22.3542 35.7931 22.2839H35.6525H35.7228C36.4958 22.1434 37.3391 22.2839 38.0418 22.565C37.9715 22.3542 37.7607 22.1434 37.6202 22.0029L37.5499 21.9326C38.2526 22.0731 38.9554 22.4245 39.5176 22.7759C39.4473 22.6353 39.3067 22.4245 39.1662 22.2839C39.8689 22.4948 40.6419 22.9867 40.9933 23.6894V23.7597C39.6581 22.7759 35.8633 23.057 32.0685 25.5165C30.382 26.6409 29.0468 27.8356 28.0629 29.1708ZM48.7234 40.6254C48.6532 40.6957 48.2315 43.2958 45.4206 45.4743C41.9771 48.215 37.4093 47.9339 35.6525 46.3879C34.7389 45.5446 34.3173 44.2796 34.3173 44.2796C34.3173 44.2796 34.247 44.9824 34.1768 45.2635C33.474 44.0688 33.5443 42.6633 33.5443 42.6633C33.5443 42.6633 33.1929 43.3661 32.9821 43.7175C32.4902 42.3823 32.701 41.0471 32.701 41.0471L32.2794 41.6795C32.2794 41.6795 32.0685 40.2038 32.5605 39.0091C33.0524 37.6739 34.0362 36.7603 34.247 36.6198C33.5443 36.409 32.701 35.7062 32.701 35.7062C32.701 35.7062 33.0524 35.7062 33.2632 35.7062C33.2632 35.7062 31.7874 34.6521 31.5064 33.0358C31.7172 33.3169 32.1388 33.598 32.1388 33.598C31.9983 33.1764 31.928 32.2628 32.0685 31.279C32.3496 29.5221 33.8254 28.3275 35.4417 28.3275C37.1985 28.3275 38.3932 28.6789 39.8689 27.3437C40.15 27.0626 40.4311 26.7815 40.8528 26.7112C40.923 26.7112 40.9933 26.6409 41.2744 26.6409C41.4852 26.6409 41.7663 26.7112 41.9771 26.8517C42.7502 27.3437 42.961 28.6086 43.0313 29.5221C43.3826 32.8953 43.2421 32.3331 44.5773 33.0358C45.2097 33.3872 45.9828 33.6683 46.826 34.5819C47.5288 34.5819 47.8801 35.1441 47.599 35.5657C45.2097 38.3766 41.9069 39.7118 38.2526 39.8524C38.1121 39.8524 37.7607 39.8524 37.7607 39.8524C36.285 39.9227 35.7931 41.8201 36.7066 42.9444C37.2688 43.6472 38.4635 43.9283 39.377 43.9283C43.3826 43.9986 47.4585 41.1876 48.1612 39.5713L48.2315 39.4308C48.091 39.6416 44.1556 43.2958 39.377 43.1553C39.377 43.1553 38.8851 43.1553 38.3932 43.0147C37.7607 42.8742 37.2688 42.5931 37.058 41.9606C37.4796 42.0309 37.9715 42.1012 38.5337 42.1012C41.9771 42.1012 44.4367 40.5551 44.2259 40.4849C44.2259 40.4849 44.2259 40.4849 44.1556 40.4849C43.734 40.5551 39.5878 42.1714 36.9877 41.3281C36.9877 41.2579 36.9877 41.1876 37.058 41.1173C37.2688 40.3443 37.6904 40.4146 38.3932 40.4146C40.7825 40.3443 42.6799 39.7118 44.1556 39.0794C45.7017 38.3766 46.8963 37.3928 47.318 36.9009C47.8801 37.8145 47.8801 39.0091 47.8801 39.0091C47.8801 39.0091 48.091 38.9388 48.3721 38.9388C49.2153 39.0091 49.3559 39.7821 48.7234 40.6254Z" fill="black"/>
<path d="M32.0685 18.7702L32.5605 18.9108L32.1388 17.5053L31.928 18.208L32.0685 18.7702Z" fill="black"/>
<path d="M34.1768 19.2622L33.4037 18.6297L33.6848 19.6135C33.8254 19.473 33.9659 19.4027 34.1768 19.2622Z" fill="black"/>
<path d="M41.2744 31.8412C41.6961 31.8412 42.0474 31.9115 42.3988 32.052C42.3988 31.0682 41.8366 30.0141 41.415 30.1546C41.1339 30.2249 41.1339 30.6466 41.1339 30.9277C41.1339 31.279 41.1339 31.5601 41.2744 31.8412Z" fill="black"/>
<path d="M33.3335 19.8244L31.7172 19.3325L32.7713 20.246C32.9821 20.1055 33.1226 19.9649 33.3335 19.8244Z" fill="black"/>
<path d="M37.4796 33.2467C37.831 33.3872 38.0418 33.4575 38.0418 33.3872C38.0418 33.3872 38.0418 33.2467 37.9715 33.1764C37.7607 32.8953 37.4093 32.6142 37.058 32.5439C36.285 32.2628 35.3714 32.4034 34.7389 32.9656C34.3876 33.2467 34.247 33.5278 34.3876 33.5278C34.4578 33.5278 34.6687 33.4575 34.9498 33.3872C36.0741 32.8953 36.6363 32.8953 37.4796 33.2467Z" fill="black"/>
<path d="M37.5499 34.1602C37.7607 34.1602 37.9013 34.1602 37.9013 34.1602C37.9715 34.0197 37.4796 33.6683 36.7066 33.7386C36.6363 33.7386 36.5661 33.8088 36.4255 33.8088H36.3552C36.2147 33.8791 36.0039 33.9494 35.8633 34.0899C35.7228 34.2305 35.6525 34.371 35.7228 34.4413C35.793 34.5116 35.8633 34.4413 36.0741 34.371C36.7066 34.1602 37.1283 34.1602 37.5499 34.1602Z" fill="black"/>
<path d="M24.9709 37.3226C25.1817 37.6037 25.1114 37.7442 25.1817 37.8145C25.1817 37.8145 25.252 37.8847 25.3223 37.8145C25.4628 37.7442 25.4628 37.6037 25.4628 37.4631C25.4628 37.182 25.3223 36.8306 25.1114 36.6198C24.8303 36.3387 24.479 36.0576 23.9871 35.9874C23.5654 35.9171 23.1438 35.9874 23.0735 36.0576C23.0032 36.0576 22.933 36.0576 22.8627 36.1279C21.7383 36.5495 21.2464 37.6739 21.4572 38.728C21.5275 39.0091 21.668 39.2902 21.8086 39.501C22.0194 39.7821 22.3005 39.7119 22.1599 39.501C22.1599 39.4308 22.0194 39.1497 21.9491 38.728C21.9491 38.2361 22.0194 37.7442 22.3708 37.3226C22.5816 37.0415 22.8627 36.9009 22.933 36.9009C23.0032 36.9009 23.0032 36.8306 23.0735 36.8306H23.1438C23.2843 36.7604 23.2141 36.8306 23.3546 36.7604C24.1979 36.6198 24.7601 36.9712 24.9709 37.3226Z" fill="black"/>
<path d="M24.6195 38.1658C24.5492 38.0955 24.479 38.0253 24.479 37.955C24.479 37.8144 24.479 37.7442 24.6195 37.6739C24.6898 37.6036 24.7601 37.6036 24.7601 37.5333C24.7601 37.4631 24.479 37.3928 24.1979 37.6036C23.9871 37.8144 23.9871 38.2361 24.2682 38.5172C24.6195 38.8685 25.1114 38.9388 25.1817 39.3605C25.1817 39.4307 25.1817 39.501 25.1817 39.5713C25.1817 39.6416 25.1817 39.7821 25.1817 39.7821C25.1114 40.2037 24.6898 40.6254 23.9871 40.4848C23.8465 40.4848 23.7762 40.4848 23.7762 40.4848C23.706 40.5551 23.9871 40.9065 24.5492 40.8362C25.3223 40.8362 25.8845 40.0632 25.7439 39.2199C25.6736 38.5172 24.9006 38.3766 24.6195 38.1658Z" fill="black"/>
<path d="M42.7105 33.4613C42.7524 33.1929 42.6308 32.951 42.4391 32.9211C42.2474 32.8912 42.058 33.0846 42.0161 33.353C41.9742 33.6215 42.0957 33.8634 42.2875 33.8933C42.4792 33.9232 42.6686 33.7298 42.7105 33.4613Z" fill="black"/>
<path d="M41.2028 39.2326C41.3147 39.0284 41.1847 38.7419 40.9124 38.5926C40.6401 38.4434 40.3286 38.488 40.2167 38.6922C40.1048 38.8965 40.2348 39.183 40.5071 39.3322C40.7794 39.4814 41.0908 39.4368 41.2028 39.2326Z" fill="black"/>
</svg>